<?xml version="1.0" encoding="UTF-8" standalone="no"?>
<!-- Created with Inkscape (http://www.inkscape.org/) -->

<svg
   width="400"
   height="400"
   viewBox="0 0 400 400"
   version="1.1"
   id="svg1"
   sodipodi:docname="logo.svg"
   inkscape:export-filename="grbl_logo.svg"
   inkscape:export-xdpi="96"
   inkscape:export-ydpi="96"
   inkscape:version="1.3 (0e150ed6c4, 2023-07-21)"
   xmlns:inkscape="http://www.inkscape.org/namespaces/inkscape"
   xmlns:sodipodi="http://sodipodi.sourceforge.net/DTD/sodipodi-0.dtd"
   xmlns="http://www.w3.org/2000/svg"
   xmlns:svg="http://www.w3.org/2000/svg">
  <sodipodi:namedview
     id="namedview1"
     pagecolor="#ffffff"
     bordercolor="#000000"
     borderopacity="0.25"
     inkscape:showpageshadow="2"
     inkscape:pageopacity="0.0"
     inkscape:pagecheckerboard="0"
     inkscape:deskcolor="#d1d1d1"
     inkscape:document-units="px"
     showguides="false"
     showgrid="false"
     inkscape:zoom="2"
     inkscape:cx="193.75"
     inkscape:cy="253.75"
     inkscape:window-width="1269"
     inkscape:window-height="683"
     inkscape:window-x="241"
     inkscape:window-y="130"
     inkscape:window-maximized="0"
     inkscape:current-layer="g54">
    <sodipodi:guide
       position="200,200"
       orientation="-1,0"
       id="guide1"
       inkscape:locked="false"
       inkscape:label=""
       inkscape:color="rgb(0,134,229)" />
    <sodipodi:guide
       position="200,200"
       orientation="0,1"
       id="guide2"
       inkscape:locked="false"
       inkscape:label=""
       inkscape:color="rgb(0,134,229)" />
    <sodipodi:guide
       position="0,400"
       orientation="0.70710678,0.70710678"
       id="guide3"
       inkscape:locked="false"
       inkscape:label=""
       inkscape:color="rgb(0,134,229)" />
    <sodipodi:guide
       position="30,200"
       orientation="-1,0"
       id="guide4"
       inkscape:locked="false"
       inkscape:label=""
       inkscape:color="rgb(0,134,229)" />
    <sodipodi:guide
       position="0,370"
       orientation="0,1"
       id="guide5"
       inkscape:locked="false"
       inkscape:label=""
       inkscape:color="rgb(0,134,229)" />
    <sodipodi:guide
       position="0,30"
       orientation="0,1"
       id="guide6"
       inkscape:locked="false"
       inkscape:label=""
       inkscape:color="rgb(0,134,229)" />
    <sodipodi:guide
       position="370,200"
       orientation="-1,0"
       id="guide7"
       inkscape:locked="false"
       inkscape:label=""
       inkscape:color="rgb(0,134,229)" />
    <sodipodi:guide
       position="40.443215,338.34389"
       orientation="0.70710678,0.70710678"
       id="guide8"
       inkscape:locked="false"
       inkscape:label=""
       inkscape:color="rgb(0,134,229)" />
    <sodipodi:guide
       position="21.2132,400"
       orientation="0.70710678,0.70710678"
       id="guide9"
       inkscape:locked="false"
       inkscape:label=""
       inkscape:color="rgb(0,134,229)" />
    <sodipodi:guide
       position="200,385"
       orientation="0,1"
       id="guide29"
       inkscape:label=""
       inkscape:locked="false"
       inkscape:color="rgb(0,134,229)" />
    <sodipodi:guide
       position="15,400"
       orientation="-1,0"
       id="guide30"
       inkscape:locked="false"
       inkscape:label=""
       inkscape:color="rgb(0,134,229)" />
    <sodipodi:guide
       position="60,200"
       orientation="0.70710678,0.70710678"
       id="guide32"
       inkscape:locked="false"
       inkscape:label=""
       inkscape:color="rgb(0,134,229)" />
    <sodipodi:guide
       position="340,200"
       orientation="0.70710678,0.70710678"
       id="guide33"
       inkscape:label=""
       inkscape:locked="false"
       inkscape:color="rgb(0,134,229)" />
    <sodipodi:guide
       position="548.5,376"
       orientation="1,0"
       id="guide42"
       inkscape:locked="false" />
    <sodipodi:guide
       position="200,15"
       orientation="0,1"
       id="guide45"
       inkscape:locked="false"
       inkscape:label=""
       inkscape:color="rgb(0,134,229)" />
    <sodipodi:guide
       position="385,200"
       orientation="-1,0"
       id="guide46"
       inkscape:locked="false"
       inkscape:label=""
       inkscape:color="rgb(0,134,229)" />
    <sodipodi:guide
       position="170.41406,89.58398"
       orientation="0.96592583,-0.25881905"
       id="guide58"
       inkscape:label=""
       inkscape:locked="false"
       inkscape:color="rgb(0,134,229)" />
    <sodipodi:guide
       position="89.583984,170.41406"
       orientation="-0.25881905,0.96592583"
       id="guide63"
       inkscape:locked="false"
       inkscape:label=""
       inkscape:color="rgb(0,134,229)" />
    <sodipodi:guide
       position="-40.356826,445"
       orientation="0,1"
       id="guide10"
       inkscape:locked="false"
       inkscape:label=""
       inkscape:color="rgb(0,134,229)" />
    <sodipodi:guide
       position="134.19336,182.37109"
       orientation="-0.70710678,0.70710678"
       id="guide11"
       inkscape:locked="false"
       inkscape:label=""
       inkscape:color="rgb(0,134,229)" />
    <sodipodi:guide
       position="182.36914,134.19336"
       orientation="-0.70710678,0.70710678"
       id="guide12"
       inkscape:label=""
       inkscape:locked="false"
       inkscape:color="rgb(0,134,229)" />
    <sodipodi:guide
       position="248.17111,151.82889"
       orientation="0.25881905,0.96592583"
       id="guide13"
       inkscape:locked="false"
       inkscape:label=""
       inkscape:color="rgb(0,134,229)" />
    <sodipodi:guide
       position="265.80664,217.62891"
       orientation="0.25881905,0.96592583"
       id="guide14"
       inkscape:label=""
       inkscape:locked="false"
       inkscape:color="rgb(0,134,229)" />
    <sodipodi:guide
       position="217.63086,265.80664"
       orientation="0.96592583,0.25881905"
       id="guide15"
       inkscape:label=""
       inkscape:locked="false"
       inkscape:color="rgb(0,134,229)" />
    <sodipodi:guide
       position="151.82617,248.17383"
       orientation="0.96592583,0.25881905"
       id="guide16"
       inkscape:label=""
       inkscape:locked="false"
       inkscape:color="rgb(0,134,229)" />
    <sodipodi:guide
       position="166.72701,163.97703"
       orientation="0.70710678,0.70710678"
       id="guide34"
       inkscape:label=""
       inkscape:locked="false"
       inkscape:color="rgb(0,134,229)" />
    <sodipodi:guide
       position="248.21423,190.60763"
       orientation="0.96592583,-0.25881905"
       id="guide35"
       inkscape:label=""
       inkscape:locked="false"
       inkscape:color="rgb(0,134,229)" />
    <sodipodi:guide
       position="187.31641,247.33203"
       orientation="-0.25881905,0.96592583"
       id="guide36"
       inkscape:label=""
       inkscape:locked="false"
       inkscape:color="rgb(0,134,229)" />
  </sodipodi:namedview>
  <defs
     id="defs1">
    <inkscape:path-effect
       effect="fillet_chamfer"
       id="path-effect46"
       is_visible="true"
       lpeversion="1"
       nodesatellites_param="F,0,0,1,0,0,0,1 @ F,0,0,1,0,0,0,1 @ F,0,0,1,0,0,0,1 @ F,0,0,1,0,0,0,1 @ F,0,0,1,0,0,0,1 @ F,0,0,1,0,0,0,1 @ F,0,0,1,0,0,0,1 @ F,0,0,1,0,0,0,1 @ F,0,0,1,0,0,0,1 @ F,0,0,1,0,0,0,1 @ F,0,0,1,0,0,0,1 @ F,0,0,1,0,0,0,1 | F,0,0,1,0,0,0,1 @ F,0,0,1,0,0,0,1 @ F,0,0,1,0,0,0,1 @ F,0,0,1,0,0,0,1 @ F,0,1,1,0,8.0036734,0,1 @ F,0,1,1,0,8.0036734,0,1 @ F,0,1,1,0,8.0036734,0,1 @ F,0,1,1,0,8.0036734,0,1 | F,0,0,1,0,0,0,1 @ F,0,1,1,0,8.0036734,0,1 @ F,0,1,1,0,8.0036734,0,1 @ F,0,0,1,0,8.0036734,0,1 @ F,0,1,1,0,8.0036734,0,1 @ F,0,0,1,0,0,0,1 @ F,0,0,1,0,0,0,1 @ F,0,0,1,0,0,0,1 | F,0,1,1,0,8.0036734,0,1 @ F,0,1,1,0,8.0036734,0,1 @ F,0,1,1,0,8.0036734,0,1 @ F,0,1,1,0,8.0036734,0,1 @ F,0,1,1,0,8.0036734,0,1 @ F,0,1,1,0,8.0036734,0,1"
       radius="0"
       unit="px"
       method="auto"
       mode="F"
       chamfer_steps="1"
       flexible="false"
       use_knot_distance="true"
       apply_no_radius="true"
       apply_with_radius="true"
       only_selected="false"
       hide_knots="false" />
    <inkscape:path-effect
       effect="fillet_chamfer"
       id="path-effect33"
       is_visible="true"
       lpeversion="1"
       nodesatellites_param="F,0,0,1,0,0,0,1 @ F,0,0,1,0,0,0,1 @ F,0,0,1,0,0,0,1 @ F,0,0,1,0,0,0,1 @ F,0,0,1,0,0,0,1 @ F,0,0,1,0,0,0,1 @ F,0,0,1,0,0,0,1 @ F,0,0,1,0,0,0,1 @ F,0,0,1,0,0,0,1 @ F,0,0,1,0,0,0,1 @ F,0,0,1,0,0,0,1 @ F,0,0,1,0,0,0,1 | F,0,0,1,0,0,0,1 @ F,0,0,1,0,0,0,1 @ F,0,0,1,0,0,0,1 @ F,0,0,1,0,0,0,1 @ F,0,1,1,0,6.9052793,0,1 @ F,0,1,1,0,6.9052793,0,1 @ F,0,1,1,0,6.9052793,0,1 @ F,0,1,1,0,6.9052793,0,1 | F,0,0,1,0,0,0,1 @ F,0,1,1,0,6.9052793,0,1 @ F,0,1,1,0,6.9052793,0,1 @ F,0,1,1,0,6.9052793,0,1 @ F,0,1,1,0,6.9052793,0,1 @ F,0,0,1,0,0,0,1 @ F,0,0,1,0,0,0,1 @ F,0,0,1,0,0,0,1 | F,0,0,1,0,6.9052793,0,1 @ F,0,1,1,0,6.9052793,0,1 @ F,0,1,1,0,6.9052793,0,1 @ F,0,1,1,0,6.9052793,0,1 @ F,0,1,1,0,6.9052793,0,1 @ F,0,1,1,0,6.9052793,0,1"
       radius="0"
       unit="px"
       method="auto"
       mode="F"
       chamfer_steps="1"
       flexible="false"
       use_knot_distance="true"
       apply_no_radius="true"
       apply_with_radius="true"
       only_selected="false"
       hide_knots="false" />
    <inkscape:path-effect
       effect="fillet_chamfer"
       id="path-effect54"
       is_visible="true"
       lpeversion="1"
       nodesatellites_param="F,0,0,1,0,0,0,1 @ F,0,0,1,0,0,0,1 @ F,0,0,1,0,170,0,1 @ F,0,0,1,0,0,0,1 @ F,0,0,1,0,0,0,1 @ F,0,0,1,0,0,0,1 @ F,0,0,1,0,0,0,1 @ F,0,0,1,0,0,0,1 @ F,0,0,1,0,170,0,1 @ F,0,0,1,0,0,0,1 @ F,0,0,1,0,0,0,1 @ F,0,0,1,0,0,0,1"
       radius="0"
       unit="px"
       method="auto"
       mode="F"
       chamfer_steps="1"
       flexible="false"
       use_knot_distance="true"
       apply_no_radius="true"
       apply_with_radius="true"
       only_selected="false"
       hide_knots="false" />
    <inkscape:path-effect
       effect="fillet_chamfer"
       id="path-effect50"
       is_visible="true"
       lpeversion="1"
       nodesatellites_param="F,0,0,1,0,15,0,1 @ F,0,0,1,0,0,0,1 @ F,0,0,1,0,0,0,1 @ F,0,0,1,0,0,0,1 @ F,0,0,1,0,200,0,1 @ F,0,0,1,0,0,0,1 @ F,0,0,1,0,0,0,1 @ F,0,0,1,0,0,0,1 @ F,0,0,1,0,15,0,1 @ F,0,0,1,0,0,0,1 @ F,0,0,1,0,0,0,1 @ F,0,0,1,0,0,0,1 @ F,0,0,1,0,200,0,1 @ F,0,0,1,0,0,0,1 @ F,0,0,1,0,0,0,1 @ F,0,0,1,0,0,0,1"
       radius="0"
       unit="px"
       method="auto"
       mode="F"
       chamfer_steps="1"
       flexible="false"
       use_knot_distance="true"
       apply_no_radius="true"
       apply_with_radius="true"
       only_selected="false"
       hide_knots="false" />
    <inkscape:path-effect
       effect="fillet_chamfer"
       id="path-effect43"
       is_visible="true"
       lpeversion="1"
       nodesatellites_param="F,0,0,1,0,0,0,1 @ F,0,0,1,0,0,0,1 @ F,0,0,1,0,0,0,1 @ F,0,0,1,0,0,0,1 @ F,0,0,1,0,0,0,1 @ F,0,0,1,0,0,0,1 @ F,0,0,1,0,0,0,1 @ F,0,0,1,0,0,0,1 @ F,0,0,1,0,0,0,1 @ F,0,0,1,0,0,0,1 @ F,0,0,1,0,0,0,1 @ F,0,0,1,0,0,0,1 @ F,0,0,1,0,0,0,1 @ F,0,0,1,0,0,0,1 @ F,0,0,1,0,0,0,1 @ F,0,0,1,0,0,0,1 @ F,0,0,1,0,0,0,1 @ F,0,0,1,0,0,0,1 @ F,0,0,1,0,0,0,1 @ F,0,0,1,0,0,0,1 @ F,0,0,1,0,0,0,1 @ F,0,0,1,0,0,0,1 @ F,0,0,1,0,0,0,1"
       radius="0"
       unit="px"
       method="auto"
       mode="F"
       chamfer_steps="1"
       flexible="false"
       use_knot_distance="true"
       apply_no_radius="true"
       apply_with_radius="true"
       only_selected="false"
       hide_knots="false" />
  </defs>
  <g
     inkscape:label="OLD"
     inkscape:groupmode="layer"
     id="layer1"
     style="display:none;fill:#ff0000">
    <g
       id="g41"
       style="display:inline;fill:#ff0000"
       inkscape:label="LOGO"
       transform="matrix(1.1658786,0,0,1.164522,-318.66377,-405.603)">
      <path
         class="st0"
         d="m 495.3,597.3 c 0.3,0.2 0.5,0.4 0.8,0.6 -0.3,-0.3 -0.6,-0.5 -0.8,-0.6 z"
         id="path1"
         style="fill:#ff0000" />
      <path
         class="st0"
         d="m 494.3,596.9 c 0.3,0 0.6,0.2 0.9,0.3 -0.2,-0.1 -0.5,-0.2 -0.9,-0.3 z"
         id="path2"
         style="fill:#ff0000" />
      <path
         class="st0"
         d="m 301.6,552.4 c -0.1,-0.5 -0.1,-1 -0.3,-1.5 0.1,0.5 0.2,1 0.3,1.5 z"
         id="path3"
         style="fill:#ff0000" />
      <path
         class="st0"
         d="m 543,646.3 c 0.3,0.3 0.6,0.7 0.9,1 -0.3,-0.3 -0.6,-0.7 -0.9,-1 z"
         id="path4"
         style="fill:#ff0000" />
      <path
         class="st0"
         d="m 557.7,661.8 c -0.8,-0.8 -1.6,-1.6 -2.4,-2.4 -0.6,-0.6 -1.2,-1.2 -1.8,-1.8 0.6,0.6 1.2,1.2 1.8,1.8 0.8,0.8 1.6,1.6 2.4,2.4 z"
         id="path5"
         style="fill:#ff0000" />
      <path
         class="st0"
         d="m 536,639.8 c -0.2,-0.1 -0.3,-0.3 -0.4,-0.5 -0.4,-0.5 -0.8,-1 -1.1,-1.6 0.4,0.5 0.7,1.1 1.1,1.6 0.1,0.2 0.3,0.4 0.4,0.5 z"
         id="path6"
         style="fill:#ff0000" />
      <path
         class="st0"
         d="m 543,646.3 c -0.3,-0.3 -0.6,-0.7 -1,-1 0.4,0.3 0.7,0.6 1,1 z"
         id="path7"
         style="fill:#ff0000" />
      <path
         class="st0"
         d="m 533.8,636.7 c -0.4,-0.5 -0.8,-1 -1.3,-1.3 -0.5,-0.3 -0.9,-0.7 -1.4,-1.1 0.4,0.4 0.9,0.8 1.4,1.1 0.5,0.4 0.9,0.8 1.3,1.3 z"
         id="path8"
         style="fill:#ff0000" />
      <path
         class="st0"
         d="m 301.9,556.2 c 0,-0.2 0,-0.5 0,-0.7 0,0.2 0,0.4 0,0.7 z"
         id="path9"
         style="fill:#ff0000" />
      <path
         class="st0"
         d="m 544.4,647.8 c 0.3,0.3 0.7,0.7 1.1,0.9 -0.4,-0.2 -0.8,-0.5 -1.1,-0.9 z"
         id="path10"
         style="fill:#ff0000" />
      <path
         class="st0"
         d="m 321.6,603.7 c -0.3,-0.5 -0.6,-1.1 -0.8,-1.7 0.2,0.6 0.4,1.2 0.8,1.7 z"
         id="path11"
         style="fill:#ff0000" />
      <path
         class="st0"
         d="m 333.3,618.1 c -1.4,-1.5 -2.8,-3 -4.2,-4.5 1.4,1.5 2.8,3 4.2,4.5 z"
         id="path12"
         style="fill:#ff0000" />
      <path
         class="st0"
         d="m 323.5,606.8 c -0.3,-0.5 -0.5,-1.1 -0.8,-1.6 0.3,0.5 0.5,1.1 0.8,1.6 z"
         id="path13"
         style="fill:#ff0000" />
      <path
         class="st0"
         d="m 334.8,620.1 c -0.5,-0.7 -0.9,-1.4 -1.5,-2 0.6,0.6 1,1.4 1.5,2 z"
         id="path14"
         style="fill:#ff0000" />
      <path
         class="st0"
         d="m 310.8,584 c -0.3,-0.4 -0.5,-0.8 -0.6,-1.2 0.2,0.5 0.4,0.9 0.6,1.2 z"
         id="path15"
         style="fill:#ff0000" />
      <path
         class="st0"
         d="m 316.5,596.1 c -0.1,-0.2 -0.1,-0.4 -0.2,-0.7 0.1,0.3 0.1,0.5 0.2,0.7 z"
         id="path16"
         style="fill:#ff0000" />
      <path
         class="st0"
         d="m 310,582.5 c -0.1,-0.3 -0.2,-0.6 -0.2,-0.9 0.1,0.3 0.1,0.6 0.2,0.9 z"
         id="path17"
         style="fill:#ff0000" />
      <path
         class="st0"
         d="m 309.8,581.6 c -0.1,-0.3 -0.1,-0.6 -0.2,-0.9 0.1,0.3 0.1,0.6 0.2,0.9 z"
         id="path18"
         style="fill:#ff0000" />
      <path
         class="st0"
         d="m 302,556.8 c 0,-0.1 -0.1,-0.2 -0.1,-0.4 0,0.1 0,0.3 0.1,0.4 z"
         id="path19"
         style="fill:#ff0000" />
      <path
         class="st0"
         d="m 537.5,641 c 0.7,0.6 1.3,1.3 1.9,2 -0.6,-0.6 -1.2,-1.3 -1.9,-2 z"
         id="path20"
         style="fill:#ff0000" />
      <path
         class="st0"
         d="m 306.5,573 c 0.8,1.9 1.5,3.7 2.4,5.6 0.1,0.1 0.1,0.3 0.2,0.4 -0.1,-0.1 -0.1,-0.3 -0.2,-0.4 -0.8,-1.9 -1.6,-3.7 -2.4,-5.6 z"
         id="path21"
         style="fill:#ff0000" />
      <path
         class="st0"
         d="m 323.5,606.8 c 0.1,0.3 0.3,0.5 0.5,0.7 0.8,1 1.7,2.1 2.5,3.1 -0.9,-1 -1.7,-2 -2.5,-3.1 -0.2,-0.2 -0.4,-0.4 -0.5,-0.7 z"
         id="path22"
         style="fill:#ff0000" />
      <path
         class="st0"
         d="m 312,585.4 c 0,0.2 0,0.3 0.1,0.5 0.1,0.4 0.3,0.8 0.4,1.2 -0.1,-0.4 -0.3,-0.8 -0.4,-1.2 -0.1,-0.2 -0.1,-0.4 -0.1,-0.5 z"
         id="path23"
         style="fill:#ff0000" />
      <path
         class="st0"
         d="m 310.8,584 c 0.2,0.2 0.4,0.5 0.6,0.7 -0.2,-0.2 -0.4,-0.4 -0.6,-0.7 z"
         id="path24"
         style="fill:#ff0000" />
      <path
         class="st0"
         d="m 313.3,589.3 c 0.2,0.4 0.3,0.7 0.5,1.1 0.3,0.4 0.5,0.8 0.8,1.2 -0.3,-0.4 -0.5,-0.8 -0.8,-1.2 -0.2,-0.4 -0.4,-0.7 -0.5,-1.1 z"
         id="path25"
         style="fill:#ff0000" />
      <path
         class="st0"
         d="m 589.4,503.4 c -0.6,-2 -0.3,-4.2 -0.4,-6.4 0,-0.5 0,-1.3 -0.3,-1.5 -1.5,-0.9 -1.1,-2.4 -1.3,-3.7 -0.2,-1.2 0,-2.4 -0.3,-3.6 -0.8,-3.2 -1.7,-6.3 -2.5,-9.5 -0.6,-2.4 -1.1,-4.9 -1.6,-7.4 0,-0.1 -0.1,-0.2 -0.1,-0.3 -0.8,-2 -1.7,-4 -2.4,-6 -0.4,-1.1 0.2,-2.6 -1.5,-3.1 -0.2,0 -0.2,-0.7 -0.2,-1.1 -0.1,-0.4 -0.1,-1 -0.4,-1.3 -1.3,-1.6 -2,-3.5 -2.5,-5.5 -0.1,-0.4 -0.1,-1 -0.3,-1.3 -1.2,-1.8 -2.3,-3.5 -2.6,-5.7 0,-0.2 -0.1,-0.4 -0.2,-0.5 -1.6,-0.6 -0.7,-3.2 -2.7,-3.4 -1.4,-2.6 -2.8,-5.3 -4.3,-7.9 -0.6,-1 -1,-2.2 -1.8,-3.1 -1,-1.1 -2.5,-1.9 -2.8,-3.7 0,-0.3 -0.2,-0.5 -0.4,-0.7 -1.7,-2.1 -3.7,-3.9 -4.9,-6.2 -0.9,-1.8 -2.7,-2.5 -3.7,-4 -0.9,-1.4 -2.4,-2.5 -3.6,-3.8 -1.1,-1.1 -1.9,-2.9 -3.2,-3.3 -1.8,-0.7 -2.5,-2.4 -4,-3.3 -1.7,-1 -2.8,-2.9 -4.3,-4.1 -1.4,-1.2 -3.1,-2.1 -4.7,-3.1 -0.8,-0.5 -1.7,-1 -2.5,-1.5 -1.4,-1 -2.7,-2 -4,-3 -0.1,0.1 -0.2,0.3 -0.4,0.4 -0.1,-0.4 -0.1,-1.1 -0.4,-1.2 -2,-1.1 -4.1,-2.1 -6.1,-3.2 -0.2,-0.1 -0.5,0 -0.7,-0.2 -1.4,-1.4 -3.2,-2.2 -5.1,-2.6 -0.3,-0.1 -0.5,-0.3 -0.7,-0.4 -1.4,-0.9 -3,-1.4 -4.5,-2.4 -1.5,-1 -3.8,-0.7 -5.1,-1.8 -1.8,-1.5 -4,-1.1 -6,-2.1 -2.3,-1.2 -5.2,-1.3 -7.9,-1.9 -0.2,0 -0.5,0 -0.7,-0.2 -1.3,-1.3 -3,-0.9 -4.5,-1.1 -0.8,-0.1 -1.5,-0.6 -2.2,-1 -0.3,-0.1 -0.6,-0.4 -0.9,-0.5 -3.6,-0.5 -7.3,-1 -10.9,-1.6 -2.9,-0.4 -5.8,-1 -8.8,-1.2 -4.1,-0.3 -8.3,-0.2 -12.5,-0.2 -43,0 -85.9,0 -128.9,0 -0.5,0 -0.9,-0.1 -1.4,0 -0.4,0.1 -1.1,0.3 -1.1,0.5 0,0.4 0.1,1 0.5,1.3 0.7,0.7 1.6,1.1 2.3,1.9 2.2,2.5 4.2,5 6.4,7.6 0.5,0.6 1,1.3 1.6,1.9 0.9,0.9 1.8,1.7 2.7,2.5 1.7,1.6 2.6,2.3 3.5,3.2 1,1.1 1.8,2.1 2.3,2.7 -0.1,0 -0.1,0.1 -0.2,0.1 0.5,0.3 1.1,0.5 1.5,0.9 0.6,0.6 1.1,1.5 1.8,2.1 1.3,1.3 2.6,2.6 3.8,3.9 0.6,0.7 1,1.5 1.7,2.2 1.7,1.7 3.6,3.3 5.3,5 1.2,1.2 2.1,2.6 3.3,3.8 2.3,2.4 4.7,4.7 7,7 1.3,1.3 2.6,2.7 3.9,4.1 1.1,1.2 2.3,2.4 3.5,3.6 0.8,0.8 1.6,1.6 2.3,2.4 0.8,0.8 1.5,1.7 2.3,2.5 0.5,0.6 1.1,1.1 1.7,1.6 1.2,1 3,1.9 3.4,3.2 0.7,2 2.8,2.5 3.7,4.2 0.8,1.3 2.3,2.2 3.5,3.3 1.9,1.9 3.9,3.8 5.6,5.8 0.7,0.8 1.2,0.7 2,0.5 26,-6.2 52,-12.3 77.9,-18.5 1.1,-0.3 1.7,-0.1 2.4,0.7 4.4,4.7 8.8,9.4 13.3,14.1 16.6,17.6 33.3,35.2 49.9,52.7 0.8,0.8 0.9,1.5 0.6,2.6 -6.3,21.1 -12.6,42.2 -18.9,63.4 -1.3,4.4 -2.6,8.9 -3.9,13.1 4.8,4.8 9.4,9.4 14.2,14.3 0.2,0.2 0.6,0.7 1,1.2 0.5,0.6 1.1,1.2 1.7,1.8 2.2,2.3 4.4,4.6 6.6,6.9 2.2,2.3 4.3,4.6 6.5,6.9 1.3,1.3 2.4,2.7 3.7,4.1 1.2,1.3 2.5,2.5 3.7,3.8 0.7,0.7 1.2,1.5 1.9,2.1 0.8,0.7 1.7,1.3 2.5,2 1.2,1.2 2.4,2.4 3.5,3.6 0.8,0.9 1.6,1.8 2.2,2.5 1.5,1.4 2.8,2.5 4,3.8 1.8,2 3.5,4.1 5.6,5.9 2.1,1.8 3.9,4 5.7,6 1.5,1.7 2.7,3.6 4.7,5 1.3,0.9 2.1,2.3 3.2,3.6 1,1.1 1.8,2.4 3,3.4 0.5,0.4 1.5,0.3 1.6,1.4 0.4,-0.2 1.1,-0.3 1.2,-0.5 0.2,-0.8 0.2,-1.6 0.2,-2.4 0,-43.9 0.1,-87.8 -0.1,-131.7 0.2,-6.9 0.9,-13.7 -1,-20.4 z"
         id="path26"
         style="display:none;fill:#ff0000" />
      <path
         class="st0"
         d="m 438.7,665.8 c 39.9,0 79.7,0 119.6,0 0.2,0 0.4,0 0.6,0 -0.2,0 -0.4,0 -0.6,0 -39.9,0 -79.8,0 -119.6,0 z"
         id="path27"
         style="fill:#ff0000" />
      <path
         class="st0"
         d="m 528.7,631.9 c -0.4,-0.4 -0.9,-0.8 -1.4,-1.1 -0.4,-0.3 -0.8,-0.6 -1.2,-1 0.4,0.4 0.8,0.7 1.2,1 0.5,0.3 1,0.7 1.4,1.1 z"
         id="path28"
         style="display:none;fill:#ff0000" />
      <path
         class="st0"
         d="m 365,504.3 c 3.1,-10.2 6.1,-20.5 9.1,-30.7 0.1,-0.4 0.2,-1 0.2,-1.5 0,0.5 0,1.1 -0.2,1.5 -3,10.3 -6,20.5 -9.1,30.7 z"
         id="path30"
         style="display:none;fill:#ff0000" />
      <path
         class="st0"
         d="m 299,394.2 c 0,1.3 0,2.3 0,3.3 0,41.7 0,83.4 0,125.1 0.2,-5.4 0.2,-51.5 0,-128.4 z"
         id="path35"
         style="display:none;fill:#ff0000" />
      <path
         class="st1"
         d="m 616,507.6 c -0.5,-3.1 -0.9,-6.2 -0.9,-9.3 0,-1.6 0,-3.2 -0.1,-4.8 0,-0.6 -0.1,-1.6 -0.4,-1.8 -1.4,-0.8 -1,-2.2 -1.1,-3.4 -0.5,-4.2 -1,-8.4 -1.6,-12.6 0,-0.3 -0.2,-0.6 -0.3,-1 -0.3,-1.2 -0.8,-2.4 -0.9,-3.7 -0.2,-2.4 -2.1,-4.5 -1.5,-7 0,-0.1 -0.1,-0.3 -0.2,-0.3 -1.3,-0.5 -0.9,-1.7 -1.1,-2.6 -0.4,-2 -1.9,-3.7 -1.5,-5.9 0,-0.1 -0.1,-0.2 -0.2,-0.3 -1.7,-0.3 -1.2,-1.8 -1.5,-2.9 -0.1,-0.4 -0.2,-0.9 -0.4,-1.2 -0.3,-0.6 -0.7,-1.1 -0.9,-1.8 -0.6,-1.7 -1,-3.5 -1.5,-5.2 0,-0.1 -0.1,-0.2 -0.2,-0.2 -1.2,-0.2 -0.9,-1.1 -1.1,-1.8 -0.1,-0.4 -0.2,-0.7 -0.4,-1 -0.3,-0.6 -0.7,-1.2 -0.9,-1.8 -0.1,-0.4 0,-0.9 -0.2,-1.2 -0.5,-0.9 -1.1,-1.7 -1.7,-2.6 -0.5,-0.7 -0.9,-1.3 -1.2,-2 -0.2,-0.3 0,-0.8 -0.2,-1 -1.7,-1.1 -1.3,-3.2 -2.5,-4.6 -0.7,-0.8 -1.1,-1.9 -1.7,-2.8 -0.9,-1.4 -1.9,-2.8 -3,-4.5 0,0 -0.9,-0.2 -0.9,-0.4 -0.3,-2.3 -2.5,-3.3 -3.3,-5.2 -0.4,-1 -0.8,-2 -1.5,-2.7 -1.7,-1.7 -3.7,-3.3 -5.1,-5.3 -0.6,-0.9 -1.4,-1.6 -2.1,-2.4 -1,-1.3 -1.9,-2.6 -3.1,-3.8 -1.2,-1.1 -2.6,-2 -3.8,-3.1 -0.6,-0.5 -1,-1.1 -1.6,-1.7 -0.8,-0.9 -1.6,-1.7 -2.3,-2.6 -1.4,-1.7 -4,-1.8 -5,-4 -0.3,-0.7 -1.2,-1.1 -1.8,-1.6 -1.1,-0.8 -2.3,-1.6 -3.4,-2.4 -1,-0.7 -1.9,-1.5 -2.9,-2.2 -1,-0.6 -2.3,-0.9 -2.9,-1.8 -1.2,-1.6 -2.6,-2.5 -4.5,-2.6 -0.2,-0.5 -0.2,-1.1 -0.5,-1.3 -1.4,-1.1 -3.2,-1.6 -4.5,-2.8 -0.9,-0.9 -2.8,-0.8 -3.7,-1.7 -1.8,-1.8 -4.6,-1.8 -6.3,-4 -0.5,-0.7 -2.3,-0.9 -3.5,-1.5 -1.6,-0.9 -3.5,-1.2 -5.3,-1.7 -0.2,-0.1 -0.4,-0.4 -0.6,-0.5 -0.4,-0.2 -0.8,-0.5 -1.2,-0.7 -1.9,-0.6 -4,-0.8 -5.6,-1.8 -1,-0.7 -1.9,-1 -3,-1.1 -0.3,0 -0.5,-0.3 -0.8,-0.5 -0.6,-0.4 -1.2,-0.9 -1.9,-1.1 -2.1,-0.6 -4.1,-1.1 -6.2,-1.6 -0.1,0 -0.3,-0.1 -0.3,-0.2 -0.3,-1.3 -1.4,-0.9 -2.2,-1.1 -0.6,-0.1 -1.5,0 -1.6,-0.3 -0.9,-1.5 -2.3,-0.9 -3.5,-1.1 -0.5,-0.1 -1,-0.1 -1.5,-0.3 -1.1,-0.3 -2.2,-0.8 -3.3,-1 -1.1,-0.2 -2.2,-0.1 -3.3,-0.3 -1.3,-0.3 -2.5,-0.8 -3.8,-1.1 -1.5,-0.3 -3.3,0.5 -4.2,-1.4 -0.1,-0.1 -0.4,-0.2 -0.6,-0.2 -3.2,0.1 -6.3,-0.8 -9.4,-1.4 -2.1,-0.4 -4.4,-0.1 -6.6,-0.2 -1,0 -2,0 -2.9,-0.2 -1.8,-0.3 -3.6,-1 -5.4,-1 -9.6,-0.1 -19.3,-0.1 -28.9,-0.1 -46.3,0 -92.5,0 -138.8,0 -1,0 -2,0.3 -3,0.6 -0.5,0.1 -0.9,0.6 -1.4,0.7 -1.6,0.4 -2.7,1.3 -3.1,2.4 -1.2,1 -2.3,1.6 -2.7,2.5 -0.8,1.9 -1.6,3.9 -1.6,5.9 -0.1,55.3 -0.1,110.5 0,165.8 0,3.2 -0.3,6.6 0.5,9.6 1,3.5 0.6,6.9 0.8,10.4 0,0.5 0,1 0.1,1.6 0.1,0.5 0.2,1 0.3,1.5 0.3,1.4 0.7,2.8 0.9,4.2 0.2,1.1 0,2.2 0.1,3.3 0.1,0.6 0.3,1.2 0.6,1.7 0.3,0.7 0.8,1.3 1,1.9 0.3,1.5 -0.1,3.1 0.6,4.4 0.8,1.6 0.9,3.2 1,4.9 0,0.5 0.1,1.2 0.4,1.5 1.1,1 0.9,2.2 1,3.4 0,0.3 0,0.9 0.1,1 1.6,1 1,2.6 1.2,4 0.1,0.7 0.4,1.3 0.6,1.9 0.7,1.6 1.4,3.2 2,4.8 0.4,1.1 -0.4,2.6 1.5,3 0.2,0 0.2,0.7 0.3,1.1 0.5,1.8 1.1,3.6 1.6,5.4 0,0.1 0.1,0.2 0.2,0.3 0.3,0.6 0.7,1.2 1,1.9 0.1,0.3 0.1,0.9 0.3,0.9 1.2,0.3 1,1.2 1.1,2 0,0.3 0.1,0.7 0.2,0.8 1.4,0.2 0.9,1.4 1.1,2.2 0.1,0.3 0,0.6 0.2,0.8 0.5,0.9 1.1,1.7 1.8,2.6 0.4,0.6 0.8,1.2 1.2,1.8 0.6,1 1.2,2.1 1.8,3.1 0.7,1.3 1.5,2.5 2.2,3.8 0.6,1 1.1,2 1.7,3 0.9,1.2 1.9,2.4 2.8,3.5 0.7,0.8 1.3,1.7 1.9,2.5 0.8,1 1.5,2.1 2.2,3.2 0.6,0.9 1.2,1.8 1.9,2.7 0.8,1 1.8,1.8 2.6,2.8 1.1,1.4 2,3 3.2,4.3 1.1,1.2 2.4,2.2 3.6,3.3 0.8,0.8 1.6,1.6 2.4,2.4 0.7,0.6 1.5,1.2 2.3,1.8 1.5,1.3 2.7,3.1 4.4,4 1.7,0.9 2.7,2.6 4.4,3.5 1.2,0.7 2.4,1.5 3.3,2.6 0.7,0.9 1.7,1.1 2.5,1.7 1.1,0.7 2.1,1.5 3,2.3 1.1,1.1 2.8,1.2 4,2.5 0.5,0.5 1.4,1.2 2.1,1.7 1.2,0.8 2.7,1.3 4,1.9 0.2,0.1 0.5,0.1 0.6,0.3 1.7,2.1 4.5,2.4 6.6,3.7 0.3,0.2 0.7,0.4 1,0.7 1.1,0.9 2.9,0.7 3.4,2.3 0,0.1 0.3,0 0.5,0 1.5,0.5 3.1,1 4.6,1.7 1.7,0.8 3.4,1.8 5.2,2.5 1.8,0.7 3.7,1.1 5.5,1.6 0.2,0.1 0.6,0.1 0.6,0.3 0.3,1.3 1.3,0.8 2.1,1 0.8,0.2 2.1,0.2 2.3,0.7 0.4,1 1.1,1 1.9,1 0.4,0 0.9,0.2 1.3,0.3 0.9,0.3 1.8,0.7 2.8,1 0.9,0.2 1.9,0.2 2.9,0.4 1,0.2 1.9,0.8 2.9,1 2.3,0.6 4.6,1 6.9,1.6 0.1,0 0.2,0.1 0.3,0.2 1.2,0.4 2.3,0.8 3.5,1 1.1,0.2 2.6,-0.3 3.4,0.3 1.9,1.4 3.9,1 5.9,1.2 0.6,0.1 1.2,0.2 1.8,0.4 0.7,0.3 1.3,0.8 2,1 4.7,0.7 9.5,0.3 14.3,1.3 4.2,0.9 8.7,0.5 13.1,0.5 51.5,0 103,0 154.5,0 1.5,0 3,0 4.5,-0.1 0.5,0 1.1,0 1.5,-0.2 0.9,-0.4 1.8,-1 2.7,-1.5 1.5,-1.5 3,-3 4.5,-4.5 0.4,-0.5 0.4,-1.7 0.8,-2 1.1,-0.6 0.9,-1.4 0.9,-2.2 0.1,-1.3 0.1,-2.5 0.1,-3.8 0,-52 0,-104.1 0,-156.1 0.1,-4.6 0.3,-9.2 -0.3,-13.7 z m -56.2,158.1 c -0.1,0 -0.2,0.1 -0.4,0.1 -0.2,0 -0.4,0 -0.6,0 -0.2,0 -0.4,0 -0.6,0 -39.9,0 -79.7,0 -119.6,0 -2.3,0 -4.6,0 -6.9,-0.1 -1.7,-0.1 -3.3,-0.1 -5,-0.8 -1.8,-0.7 -4,-0.4 -6,-0.6 -0.7,-0.1 -1.4,-0.6 -2.1,-0.9 -0.6,-0.2 -1.3,-0.5 -1.9,-0.6 -1,-0.1 -2,0 -2.9,-0.2 -0.9,-0.2 -1.7,-0.5 -2.6,-0.8 -0.2,-0.1 -0.3,-0.1 -0.5,-0.1 -2.6,-0.6 -5.2,-1.1 -7.9,-1.7 -1.1,-0.3 -2.2,-0.7 -3.3,-1 -0.2,-0.1 -0.3,-0.1 -0.5,-0.1 -2.3,-0.6 -4.5,-1.1 -6.8,-1.7 -1.6,-0.4 -3.5,-0.7 -4.8,-1.6 -0.9,-0.6 -1.9,-1 -2.6,-1.6 -0.6,-0.5 -1.3,-0.8 -2,-0.9 -0.7,-0.1 -1.5,-0.3 -2.1,-0.6 -0.5,-0.2 -0.9,-0.4 -1.3,-0.9 -0.9,-1 -2.8,-1.1 -4.1,-1.7 -0.4,-0.2 -0.7,-0.4 -1.1,-0.6 -1.1,-0.6 -2.2,-1.2 -3.3,-1.8 -0.3,-0.1 -0.6,-0.2 -1,-0.2 -0.1,0 -0.2,-0.1 -0.3,-0.1 -0.5,-0.3 -0.9,-0.6 -1.3,-1 -0.2,-0.2 -0.3,-0.5 -0.5,-0.6 -2.1,-1 -4.4,-1.9 -6.4,-3.1 -1.7,-1 -3.2,-2.5 -4.8,-3.7 -1.1,-0.8 -2.4,-1.4 -3.6,-2.1 -0.7,-0.4 -1.3,-1 -2,-1.5 -1.5,-1.3 -2.8,-2.9 -4.5,-3.7 -2,-1 -2.8,-2.9 -4.4,-4.2 -1.9,-1.5 -3.8,-3 -5.6,-4.6 -0.7,-0.7 -1.2,-1.6 -1.8,-2.5 -0.5,-0.7 -0.9,-1.4 -1.5,-2 -1.4,-1.5 -2.8,-3 -4.2,-4.5 -0.9,-1 -1.7,-2 -2.6,-3 -0.9,-1 -1.7,-2 -2.5,-3.1 -0.2,-0.2 -0.3,-0.5 -0.5,-0.7 -0.3,-0.5 -0.5,-1.1 -0.8,-1.6 -0.1,-0.3 -0.3,-0.5 -0.5,-0.7 -0.2,-0.3 -0.4,-0.5 -0.6,-0.8 -0.3,-0.5 -0.6,-1.1 -0.8,-1.7 -0.1,-0.3 -0.2,-0.6 -0.3,-0.9 -0.1,-0.6 -1,-0.9 -1.5,-1.5 -0.9,-1.1 -1.7,-2.3 -2.5,-3.5 -0.1,-0.2 -0.1,-0.4 -0.2,-0.7 -0.3,-1.4 -1,-2.6 -1.8,-3.9 -0.3,-0.4 -0.5,-0.8 -0.8,-1.2 -0.2,-0.3 -0.4,-0.7 -0.5,-1.1 -0.3,-0.7 -0.6,-1.5 -0.8,-2.3 -0.1,-0.4 -0.3,-0.8 -0.4,-1.2 0,-0.1 0,-0.3 -0.1,-0.5 -0.1,-0.2 0,-0.3 -0.1,-0.4 -0.1,-0.1 -0.3,-0.2 -0.4,-0.3 -0.3,-0.2 -0.5,-0.4 -0.6,-0.7 -0.3,-0.4 -0.5,-0.8 -0.6,-1.2 -0.1,-0.1 -0.1,-0.3 -0.2,-0.4 -0.1,-0.3 -0.2,-0.6 -0.2,-0.9 -0.1,-0.3 -0.1,-0.6 -0.2,-0.9 -0.1,-0.6 -0.3,-1.2 -0.5,-1.7 -0.1,-0.1 -0.1,-0.3 -0.2,-0.4 -0.8,-1.8 -1.6,-3.7 -2.4,-5.6 0,-0.1 -0.1,-0.1 -0.1,-0.2 -0.5,-2.1 -1,-4.3 -1.6,-6.4 -0.2,-0.9 -0.5,-1.9 -0.7,-2.8 -0.2,-0.9 -0.5,-1.9 -0.7,-2.8 -0.1,-0.3 -0.1,-0.7 -0.1,-1 -0.1,-1 -0.1,-2.1 -1.3,-2.8 -0.1,0 -0.1,-0.1 -0.1,-0.2 0,-0.1 -0.1,-0.2 -0.1,-0.4 0,-0.1 0,-0.1 0,-0.2 0,-0.2 0,-0.5 0,-0.7 -0.1,-1 -0.1,-2.1 -0.3,-3.1 -0.1,-0.5 -0.1,-1 -0.3,-1.5 -0.1,-0.5 -0.3,-1 -0.6,-1.5 -0.7,-1.5 -0.2,-3.6 -0.4,-5.5 -0.2,-2 -0.7,-3.9 -1,-5.8 -0.1,-0.5 -0.1,-1 -0.1,-1.5 -0.1,-5 -0.5,-7.5 -0.2,-13.8 0,-41.7 0,-83.4 0,-125.1 0,-1 0,-2.1 0,-3.3 0.2,0 0.3,0.1 0.5,0.1 0.3,0 0.6,0.1 0.8,0.1 0.1,0 0.1,0.1 0.2,0.1 1,1.9 2.8,3.1 4.4,4.4 0.4,0.3 0.8,0.6 1.1,1 0.7,0.7 1.4,1.4 2.1,2.1 0.3,0.4 0.7,0.7 1,1.1 0.6,0.7 1,1.7 1.6,2.4 0.6,0.7 1.5,1.2 2.2,1.9 1.2,1.2 2.3,2.6 3.7,3.6 1.5,1.1 2,3.1 4,3.9 1.3,0.5 2.1,2.1 3.1,3.2 2.4,2.6 4.8,5.1 7.2,7.7 1.5,1.6 3,3.3 4.5,5 1.2,1.3 2.5,2.5 3.8,3.7 0.6,0.6 1.3,1.2 1.9,1.8 0.9,1.1 1.7,2.4 2.6,3.5 0.5,0.7 1.1,1.3 1.8,1.7 0.4,0.2 0.7,0.5 1,0.8 0.9,0.9 1.7,1.8 2.8,2.5 0.8,0.5 1.2,1.6 1.8,2.4 0.5,0.6 1,1.2 1.5,1.7 0.9,0.8 2,1.5 2.9,2.3 0.3,0.3 0.6,0.5 0.9,0.8 0.6,0.6 1.1,1.3 1.7,2 0.6,0.7 1.1,1.4 1.6,2 1.3,1.4 2.8,2.7 4.2,4.2 1.2,1.3 2.3,2.7 3.5,4 1,1.1 2,2.2 3.1,3.2 1.1,1.1 2.6,1.9 3.5,3.1 0.2,0.2 0.3,0.6 0.3,1 0,0.1 0,0.3 0,0.4 0,0.5 0,1.1 -0.2,1.5 -3,10.2 -6.1,20.5 -9.1,30.7 -4,13.5 -8.1,27 -12,40.4 -0.2,0.6 0,1.6 0.5,2.1 12.3,13.1 24.6,26.1 36.9,39.1 8.7,9.3 17.5,18.5 26.2,27.8 0.8,0.8 1.4,1.2 2.7,0.9 22.3,-5.3 44.5,-10.6 66.8,-15.9 2.4,-0.6 4.7,-1.1 7.1,-1.7 0.2,-0.1 0.4,-0.1 0.6,-0.1 0.2,0 0.4,0 0.6,0 0.3,0 0.6,0.2 0.9,0.3 0.3,0.2 0.5,0.4 0.8,0.6 0.2,0.2 0.5,0.5 0.7,0.8 0.5,0.6 1.1,1.2 1.7,1.7 0.6,0.6 1.2,1.1 1.7,1.7 0.8,0.8 1.6,1.6 2.4,2.4 1.1,1.2 2.2,2.3 3.3,3.5 1.2,1.3 2.4,2.7 3.6,4.1 0.4,0.4 0.9,0.7 1.3,1.1 0.1,0.1 0.3,0.2 0.4,0.4 1.8,1.8 3.5,3.7 5.3,5.6 0.5,0.6 1.1,1.1 1.6,1.7 1.1,1.1 2.2,2.3 3.2,3.4 0.5,0.6 1.1,1.1 1.6,1.7 0.2,0.2 0.4,0.4 0.5,0.6 0.9,1.1 1.6,2.3 2.6,3.3 0.4,0.4 0.8,0.7 1.2,1 0.5,0.3 1,0.7 1.4,1.1 0.9,0.8 1.6,1.7 2.4,2.5 0.4,0.4 0.9,0.8 1.4,1.1 0.5,0.3 0.9,0.8 1.3,1.3 0.3,0.3 0.5,0.7 0.7,1 0.4,0.5 0.7,1.1 1.1,1.6 0.1,0.2 0.3,0.3 0.4,0.5 0.3,0.3 0.7,0.5 1,0.8 0.2,0.1 0.3,0.3 0.5,0.4 0.7,0.6 1.3,1.3 1.9,2 0.6,0.7 1.3,1.3 2,1.8 0.2,0.1 0.4,0.3 0.5,0.4 0.3,0.3 0.7,0.6 1,1 0.3,0.4 0.6,0.7 0.9,1 0.2,0.2 0.3,0.3 0.5,0.5 0.3,0.3 0.7,0.7 1.1,0.9 1.5,1.1 2.8,2.7 4,4.2 0.5,0.6 1,1.2 1.5,1.9 0.3,0.3 0.5,0.6 0.8,0.9 0.6,0.6 1.2,1.2 1.8,1.8 0.6,0.6 1.2,1.2 1.8,1.8 0.8,0.8 1.6,1.6 2.4,2.4 0.8,0.8 1.6,1.7 2.4,2.6 0.1,0.1 0.1,0.1 0.2,0.2 0.5,0.7 0.5,1.2 -0.2,1.4 z M 378.7,538.5 c 6.3,-20.9 12.5,-41.8 18.7,-62.7 0.3,-1.1 0.8,-1.6 2,-1.9 21.1,-5 42.1,-10 63.1,-15.1 1.7,-0.4 2.5,0.3 3.5,1.3 13.9,14.7 27.7,29.5 41.8,44 2.9,3 3.4,5.4 2.2,9.4 -6.1,19.4 -11.7,38.9 -17.5,58.4 -0.4,1.4 -1.1,2 -2.5,2.4 -21.1,5 -42.1,10 -63.2,15 -0.3,0.1 -0.7,0.1 -1.3,0.3 -0.3,-0.2 -0.7,-0.5 -1.1,-0.9 -11.9,-12.6 -23.8,-25.1 -35.6,-37.7 -3.2,-3.4 -6.3,-6.7 -9.5,-10 -0.7,-0.9 -0.9,-1.5 -0.6,-2.5 z m 70.2,-164.3 c 4.2,0 8.3,0 12.5,0.2 2.9,0.2 5.8,0.8 8.8,1.2 3.6,0.5 7.3,1 10.9,1.6 0.3,0 0.6,0.3 0.9,0.5 0.7,0.3 1.4,0.9 2.2,1 1.5,0.3 3.2,-0.2 4.5,1.1 0.1,0.1 0.4,0.1 0.7,0.2 2.7,0.6 5.6,0.6 7.9,1.9 1.9,1 4.2,0.6 6,2.1 1.3,1.1 3.6,0.9 5.1,1.8 1.4,1 3.1,1.4 4.5,2.4 0.2,0.2 0.4,0.4 0.7,0.4 1.9,0.4 3.7,1.3 5.1,2.6 0.1,0.1 0.5,0.1 0.7,0.2 2,1 4.1,2.1 6.1,3.2 0.3,0.2 0.3,0.8 0.4,1.2 0.1,-0.1 0.2,-0.3 0.4,-0.4 1.3,1 2.7,2 4,3 0.8,0.6 1.7,1 2.5,1.5 1.6,1 3.3,1.9 4.7,3.1 1.5,1.3 2.7,3.1 4.3,4.1 1.5,0.9 2.2,2.7 4,3.3 1.3,0.5 2.1,2.2 3.2,3.3 1.2,1.3 2.6,2.4 3.6,3.8 1,1.6 2.8,2.2 3.7,4 1.2,2.3 3.2,4.2 4.9,6.2 0.2,0.2 0.4,0.5 0.4,0.7 0.2,1.7 1.7,2.5 2.8,3.7 0.8,0.9 1.2,2 1.8,3.1 1.4,2.6 2.8,5.3 4.3,7.9 2,0.2 1.1,2.8 2.7,3.4 0.1,0 0.1,0.3 0.2,0.5 0.3,2.1 1.5,3.9 2.6,5.7 0.2,0.4 0.2,0.9 0.3,1.3 0.4,2 1.2,3.9 2.5,5.5 0.3,0.3 0.3,0.9 0.4,1.3 0.1,0.4 0.1,1.1 0.2,1.1 1.7,0.5 1.1,2 1.5,3.1 0.7,2 1.6,4 2.4,6 0,0.1 0.1,0.2 0.1,0.3 0.5,2.5 1,4.9 1.6,7.4 0.8,3.2 1.7,6.3 2.5,9.5 0.3,1.2 0.1,2.4 0.3,3.6 0.2,1.3 -0.2,2.8 1.3,3.7 0.3,0.2 0.3,0.9 0.3,1.5 0.1,2.1 -0.2,4.4 0.4,6.4 1.8,6.7 1.1,13.5 1.1,20.2 0.1,43.9 0.1,87.8 0.1,131.7 0,0.8 0,1.6 -0.2,2.4 -0.1,0.3 -0.8,0.3 -1.2,0.5 -0.1,-1.1 -1.1,-0.9 -1.6,-1.4 -1.1,-1 -2,-2.2 -3,-3.4 -1,-1.2 -1.9,-2.7 -3.2,-3.6 -1.9,-1.4 -3.1,-3.3 -4.7,-5 -1.8,-2.1 -3.6,-4.2 -5.7,-6 -2.1,-1.8 -3.8,-3.9 -5.6,-5.9 -1.2,-1.3 -2.6,-2.4 -4,-3.8 -0.6,-0.7 -1.4,-1.6 -2.2,-2.5 -1.1,-1.2 -2.3,-2.4 -3.5,-3.6 -0.8,-0.7 -1.7,-1.3 -2.5,-2 -0.7,-0.7 -1.3,-1.4 -1.9,-2.1 -1.2,-1.3 -2.5,-2.5 -3.7,-3.8 -1.3,-1.3 -2.4,-2.7 -3.7,-4.1 -2.2,-2.3 -4.3,-4.6 -6.5,-6.9 -2.2,-2.3 -4.4,-4.6 -6.6,-6.9 -0.6,-0.6 -1.1,-1.2 -1.7,-1.8 -0.4,-0.5 -0.9,-1 -1,-1.2 -4.8,-4.9 -9.4,-9.5 -14.2,-14.3 1.2,-4.2 2.5,-8.7 3.9,-13.1 6.3,-21.1 12.6,-42.2 18.9,-63.4 0.3,-1.1 0.2,-1.8 -0.6,-2.6 -16.7,-17.6 -33.3,-35.2 -49.9,-52.7 -4.4,-4.7 -8.9,-9.4 -13.3,-14.1 -0.7,-0.8 -1.3,-1 -2.4,-0.7 -26,6.2 -51.9,12.3 -77.9,18.5 -0.8,0.2 -1.3,0.3 -2,-0.5 -1.7,-2 -3.7,-3.9 -5.6,-5.8 -1.1,-1.1 -2.7,-2 -3.5,-3.3 -1,-1.7 -3,-2.2 -3.7,-4.2 -0.5,-1.3 -2.3,-2.1 -3.4,-3.2 -0.6,-0.5 -1.1,-1 -1.7,-1.6 -0.8,-0.8 -1.5,-1.6 -2.3,-2.5 -0.8,-0.8 -1.6,-1.6 -2.3,-2.4 -1.2,-1.2 -2.3,-2.4 -3.5,-3.6 -1.3,-1.4 -2.6,-2.8 -3.9,-4.1 -2.3,-2.4 -4.7,-4.6 -7,-7 -1.2,-1.2 -2.1,-2.6 -3.3,-3.8 -1.7,-1.7 -3.5,-3.3 -5.3,-5 -0.6,-0.6 -1.1,-1.5 -1.7,-2.2 -1.2,-1.3 -2.6,-2.6 -3.8,-3.9 -0.6,-0.7 -1.1,-1.5 -1.8,-2.1 -0.4,-0.4 -1,-0.6 -1.5,-0.9 0.1,0 0.1,-0.1 0.2,-0.1 -0.5,-0.6 -1.2,-1.6 -2.3,-2.7 -0.9,-0.9 -1.8,-1.7 -3.5,-3.2 -0.9,-0.8 -1.9,-1.6 -2.7,-2.5 -0.6,-0.6 -1.1,-1.3 -1.6,-1.9 -2.1,-2.5 -4.2,-5.1 -6.4,-7.6 -0.6,-0.7 -1.6,-1.2 -2.3,-1.9 -0.3,-0.3 -0.5,-0.9 -0.5,-1.3 0,-0.2 0.7,-0.4 1.1,-0.5 0.4,-0.1 0.9,0 1.4,0"
         id="path36"
         style="display:inline;fill:#ff0000" />
      <path
         class="st0"
         d="m 560,664.3 c -0.8,-0.9 -1.6,-1.7 -2.4,-2.6 -0.8,-0.8 -1.6,-1.6 -2.4,-2.4 -0.6,-0.6 -1.2,-1.2 -1.8,-1.8 -0.6,-0.6 -1.2,-1.2 -1.8,-1.8 -0.3,-0.3 -0.5,-0.6 -0.8,-0.9 -0.5,-0.6 -1,-1.2 -1.5,-1.9 -1.2,-1.6 -2.5,-3.1 -4,-4.2 -0.4,-0.3 -0.7,-0.6 -1.1,-0.9 -0.2,-0.2 -0.3,-0.3 -0.5,-0.5 -0.3,-0.3 -0.6,-0.7 -0.9,-1 -0.3,-0.3 -0.6,-0.7 -1,-1 -0.2,-0.2 -0.4,-0.3 -0.5,-0.4 -0.7,-0.5 -1.4,-1.2 -2,-1.8 -0.6,-0.7 -1.3,-1.4 -1.9,-2 -0.2,-0.1 -0.3,-0.3 -0.5,-0.4 -0.3,-0.3 -0.7,-0.5 -1,-0.8 -0.2,-0.1 -0.3,-0.3 -0.4,-0.5 -0.4,-0.5 -0.8,-1 -1.1,-1.6 -0.2,-0.4 -0.5,-0.7 -0.7,-1 -0.4,-0.5 -0.8,-1 -1.3,-1.3 -0.5,-0.3 -0.9,-0.7 -1.4,-1.1 -0.8,-0.8 -1.6,-1.7 -2.4,-2.5 -0.4,-0.4 -0.9,-0.8 -1.4,-1.1 -0.4,-0.3 -0.8,-0.6 -1.2,-1 -0.9,-1 -1.7,-2.2 -2.6,-3.3 -0.2,-0.2 -0.3,-0.4 -0.5,-0.6 -0.5,-0.6 -1.1,-1.2 -1.6,-1.7 -1.1,-1.2 -2.1,-2.3 -3.2,-3.4 -0.5,-0.6 -1.1,-1.1 -1.6,-1.7 -1.8,-1.9 -3.5,-3.7 -5.3,-5.6 -0.1,-0.1 -0.3,-0.3 -0.4,-0.4 -0.4,-0.3 -0.9,-0.7 -1.3,-1.1 -1.2,-1.3 -2.4,-2.7 -3.6,-4.1 -1.1,-1.2 -2.2,-2.4 -3.3,-3.5 -0.8,-0.8 -1.6,-1.6 -2.4,-2.4 -0.6,-0.6 -1.1,-1.1 -1.7,-1.7 -0.6,-0.6 -1.1,-1.1 -1.7,-1.7 -0.2,-0.3 -0.5,-0.5 -0.7,-0.8 -0.2,-0.2 -0.5,-0.4 -0.8,-0.6 -0.3,-0.2 -0.6,-0.3 -0.9,-0.3 -0.2,0 -0.4,0 -0.6,0 -0.2,0 -0.4,0 -0.6,0.1 -2.4,0.6 -4.7,1.1 -7.1,1.7 -22.3,5.3 -44.5,10.6 -66.8,15.9 -1.2,0.3 -1.9,0 -2.7,-0.9 -8.7,-9.3 -17.5,-18.5 -26.2,-27.8 -12.3,-13 -24.6,-26.1 -36.9,-39.1 -0.4,-0.5 -0.6,-1.5 -0.5,-2.1 4,-13.5 8,-27 12,-40.4 3.1,-10.2 6.1,-20.5 9.1,-30.7 0.1,-0.4 0.2,-1 0.2,-1.5 0,-0.1 0,-0.3 0,-0.4 -0.1,-0.4 -0.2,-0.7 -0.3,-1 -0.9,-1.2 -2.4,-2 -3.5,-3.1 -1.1,-1 -2.1,-2.1 -3.1,-3.2 -1.2,-1.3 -2.3,-2.7 -3.5,-4 -1.4,-1.4 -2.9,-2.7 -4.2,-4.2 -0.6,-0.6 -1.1,-1.3 -1.6,-2 -0.5,-0.7 -1.1,-1.4 -1.7,-2 -0.3,-0.3 -0.6,-0.6 -0.9,-0.8 -0.9,-0.8 -2,-1.5 -2.9,-2.3 -0.6,-0.5 -1.1,-1.1 -1.5,-1.7 -0.6,-0.8 -1,-1.9 -1.8,-2.4 -1.1,-0.7 -1.9,-1.6 -2.8,-2.5 -0.3,-0.3 -0.6,-0.6 -1,-0.8 -0.7,-0.5 -1.3,-1.1 -1.8,-1.7 -0.9,-1.1 -1.7,-2.4 -2.6,-3.5 -0.6,-0.7 -1.3,-1.2 -1.9,-1.8 -1.3,-1.2 -2.6,-2.4 -3.8,-3.7 -1.5,-1.6 -3,-3.3 -4.5,-5 -2.4,-2.6 -4.8,-5.1 -7.2,-7.7 -1,-1.1 -1.8,-2.7 -3.1,-3.2 -1.9,-0.8 -2.5,-2.8 -4,-3.9 -1.4,-1 -2.5,-2.4 -3.7,-3.6 -0.7,-0.7 -1.5,-1.2 -2.2,-1.9 -0.6,-0.7 -1,-1.7 -1.6,-2.4 -0.3,-0.4 -0.7,-0.7 -1,-1.1 -0.7,-0.7 -1.4,-1.5 -2.1,-2.1 -0.4,-0.3 -0.7,-0.7 -1.1,-1 -1.6,-1.3 -3.4,-2.5 -4.4,-4.4 0,-0.1 -0.1,-0.1 -0.2,-0.1 -0.2,-0.1 -0.4,-0.1 -0.8,-0.1 -0.2,0 -0.3,0 -0.5,-0.1 0.2,76.8 0.3,123 0,128.5 -0.3,6.4 0.1,8.8 0.2,13.8 0,0.5 0,1 0.1,1.5 0.3,1.9 0.8,3.9 1,5.8 0.2,1.8 -0.3,3.9 0.4,5.5 0.2,0.5 0.4,1 0.6,1.5 0.1,0.5 0.2,1 0.3,1.5 0.1,1 0.2,2 0.3,3.1 0,0.2 0,0.4 0,0.7 0,0.1 0,0.1 0,0.2 0,0.1 0,0.3 0.1,0.4 0,0.1 0.1,0.2 0.1,0.2 1.2,0.7 1.2,1.7 1.3,2.8 0,0.3 0,0.7 0.1,1 0.2,0.9 0.4,1.9 0.7,2.8 0.2,0.9 0.5,1.9 0.7,2.8 0.5,2.1 1,4.3 1.6,6.4 0,0.1 0.1,0.1 0.1,0.2 0.8,1.9 1.5,3.7 2.4,5.6 0.1,0.1 0.1,0.3 0.2,0.4 0.2,0.6 0.4,1.1 0.5,1.7 0.1,0.3 0.1,0.6 0.2,0.9 0.1,0.3 0.2,0.6 0.2,0.9 0,0.1 0.1,0.3 0.2,0.4 0.2,0.4 0.4,0.8 0.6,1.2 0.2,0.2 0.4,0.5 0.6,0.7 0.1,0.1 0.3,0.2 0.4,0.3 0.1,0.1 0.1,0.2 0.1,0.4 0,0.2 0,0.3 0.1,0.5 0.1,0.4 0.3,0.8 0.4,1.2 0.2,0.8 0.5,1.6 0.8,2.3 0.2,0.4 0.3,0.7 0.5,1.1 0.3,0.4 0.5,0.8 0.8,1.2 0.8,1.2 1.5,2.4 1.8,3.9 0.1,0.2 0.1,0.5 0.2,0.7 0.8,1.2 1.6,2.4 2.5,3.5 0.4,0.5 1.3,0.9 1.5,1.5 0.1,0.3 0.2,0.6 0.3,0.9 0.2,0.6 0.5,1.2 0.8,1.7 0.2,0.3 0.4,0.5 0.6,0.8 0.2,0.2 0.3,0.5 0.5,0.7 0.3,0.5 0.5,1.1 0.8,1.6 0.1,0.3 0.3,0.5 0.5,0.7 0.8,1 1.7,2.1 2.5,3.1 0.9,1 1.7,2 2.6,3 1.4,1.5 2.8,3 4.2,4.5 0.6,0.6 1,1.3 1.5,2 0.6,0.8 1.1,1.8 1.8,2.5 1.8,1.6 3.7,3.1 5.6,4.6 1.5,1.3 2.3,3.2 4.4,4.2 1.7,0.8 3,2.5 4.5,3.7 0.6,0.5 1.3,1.1 2,1.5 1.2,0.7 2.5,1.3 3.6,2.1 1.7,1.2 3.1,2.7 4.8,3.7 2,1.2 4.3,2 6.4,3.1 0.2,0.1 0.3,0.4 0.5,0.6 0.4,0.4 0.8,0.7 1.3,1 0.1,0.1 0.2,0.1 0.3,0.1 0.3,0.1 0.7,0.1 1,0.2 1.1,0.6 2.2,1.2 3.3,1.8 0.4,0.2 0.7,0.4 1.1,0.6 1.4,0.6 3.2,0.7 4.1,1.7 0.4,0.4 0.8,0.7 1.3,0.9 0.7,0.3 1.4,0.4 2.1,0.6 0.7,0.2 1.4,0.4 2,0.9 0.7,0.6 1.7,1 2.6,1.6 1.3,0.9 3.2,1.1 4.8,1.6 2.3,0.6 4.5,1.2 6.8,1.7 0.2,0 0.3,0.1 0.5,0.1 1.1,0.3 2.2,0.7 3.3,1 2.6,0.6 5.2,1.1 7.9,1.7 0.2,0 0.3,0.1 0.5,0.1 0.9,0.3 1.7,0.7 2.6,0.8 1,0.2 2,0.1 2.9,0.2 0.7,0.1 1.3,0.3 1.9,0.6 0.7,0.3 1.4,0.8 2.1,0.9 2,0.3 4.2,-0.1 6,0.6 1.7,0.7 3.3,0.7 5,0.8 2.3,0.1 4.6,0.1 6.9,0.1 39.9,0 79.7,0 119.6,0 0.2,0 0.4,0 0.6,0 0.2,0 0.4,0 0.6,0 0.1,0 0.3,0 0.4,-0.1 0.6,-0.2 0.6,-0.7 0.4,-1.2 -0.2,-0.3 -0.3,-0.4 -0.4,-0.5 z"
         id="path37"
         style="display:none;fill:#ff0000"
         inkscape:highlight-color="#ff5555" />
      <path
         class="st0"
         d="m 424.5,588.6 c 0.4,0.4 0.8,0.7 1.1,0.9 0.6,-0.1 1,-0.2 1.3,-0.3 21.1,-5 42.1,-10 63.2,-15 1.4,-0.3 2.1,-1 2.5,-2.4 5.8,-19.5 11.4,-39 17.5,-58.4 1.2,-4 0.8,-6.3 -2.2,-9.4 -14.1,-14.5 -27.9,-29.3 -41.8,-44 -1,-1 -1.8,-1.7 -3.5,-1.3 -21,5.1 -42.1,10.1 -63.1,15.1 -1.2,0.3 -1.7,0.8 -2,1.9 -6.2,20.9 -12.5,41.8 -18.7,62.7 -0.3,1 -0.1,1.6 0.6,2.4 3.2,3.3 6.4,6.7 9.5,10 11.8,12.7 23.7,25.3 35.6,37.8 z m 69.7,-82.2 c 2.7,0.8 5.3,1.5 8.2,2.3 -5.6,19.6 -11.2,39 -16.8,58.6 -2.8,-0.8 -5.4,-1.5 -8.2,-2.3 5.6,-19.6 11.2,-39 16.8,-58.6 z m -30.9,-39.9 c 0.7,2.9 1.3,5.5 1.9,8.3 -19.8,4.6 -39.5,9.3 -59.3,13.9 -0.7,-2.8 -1.3,-5.4 -2,-8.3 19.8,-4.6 39.5,-9.2 59.4,-13.9 z m -70.2,64.6 c 13.9,14.8 27.7,29.6 41.6,44.5 -2,1.9 -4.1,3.8 -6.2,5.8 -13.9,-14.9 -27.7,-29.6 -41.7,-44.5 2.2,-2.1 4.2,-3.9 6.3,-5.8 z"
         id="path38"
         style="display:none;fill:#ff0000" />
      <g
         id="g50"
         inkscape:label="Bars"
         style="fill:#ff0000">
        <path
           class="st1"
           d="m 434.8,575.6 c -13.9,-14.9 -27.8,-29.7 -41.6,-44.5 -2.1,1.9 -4.1,3.8 -6.2,5.8 13.9,14.9 27.8,29.7 41.7,44.5 2,-2 4,-3.9 6.1,-5.8 z"
           id="path39"
           style="display:inline;fill:#ff0000"
           inkscape:highlight-color="#aaaaaa"
           sodipodi:nodetypes="ccccc" />
        <path
           class="st1"
           d="m 502.4,508.7 c -2.8,-0.8 -5.5,-1.5 -8.2,-2.3 -5.6,19.7 -11.2,39.1 -16.8,58.6 2.8,0.8 5.4,1.5 8.2,2.3 5.6,-19.6 11.2,-39.1 16.8,-58.6 z"
           id="path40"
           style="fill:#ff0000" />
        <path
           class="st1"
           d="m 465.2,474.8 c -0.7,-2.8 -1.3,-5.4 -1.9,-8.3 -19.9,4.7 -39.6,9.3 -59.4,13.9 0.7,2.8 1.3,5.5 2,8.3 19.8,-4.7 39.5,-9.3 59.3,-13.9 z"
           id="path41"
           style="display:inline;fill:#ff0000" />
      </g>
    </g>
  </g>
  <g
     inkscape:groupmode="layer"
     id="layer2"
     inkscape:label="NEW"
     style="display:inline">
    <g
       id="g54"
       inkscape:label="Componenets"
       style="display:none">
      <path
         id="path44"
         style="display:none;fill:#000000"
         d="M 192.65234,0.00195313 C 138.31964,-0.00114056 84.332501,-0.02300468 30,0 H 15 0 L 0.00661777,14.966745 0.01323554,29.93349 C -0.0148638,38.701962 0.00742397,47.471618 -4.5671927e-4,56.240625 0.00232936,104.57013 -0.01218793,152.89984 0.01796305,201.22922 c 0.15512257,23.0325 4.29364275,46.03665 12.24516895,67.65638 7.457554,20.36989 18.284149,39.4919 31.864421,56.40495 15.047518,18.71391 33.486812,34.69274 54.170257,46.89479 22.06637,13.04714 46.666,21.78496 72.01945,25.57685 10.66677,1.61629 21.46349,2.30154 32.24913,2.22448 31.5898,0.0331 63.1797,0.004 94.76955,0.0151 24.48832,-0.0103 48.977,0.009 73.4651,-0.0244 7.69236,-0.19483 15.25006,-3.47394 20.61257,-8.99864 5.26993,-5.33596 8.39291,-12.71288 8.55718,-20.21162 0.073,-5.70703 0.007,-11.41687 0.0295,-17.12499 -0.002,-51.98967 0.0112,-103.97952 -0.0197,-155.96908 -0.30069,-28.02211 -6.61752,-55.95134 -18.35125,-81.398 C 369.88284,90.764227 352.68854,67.782823 331.51602,49.329 311.33798,31.695977 287.57153,18.19757 262.09531,9.8895343 241.98236,3.3130569 220.82329,-0.03688658 199.66256,0.00109911 c -2.3367,-0.01092457 -4.67349,0.00231305 -7.01022,8.5402e-4 z"
         inkscape:label="Outline_Bad"
         sodipodi:nodetypes="cccccccccccccccccccccccc"
         inkscape:path-effect="#path-effect43"
         inkscape:original-d="M 192.65234,0.00195313 C 138.31964,-0.00114056 84.332501,-0.02300468 30,0 H 15 0 L 0.00661777,14.966745 0.01323554,29.93349 C -0.0148638,38.701962 0.00742397,47.471618 -4.5671927e-4,56.240625 0.00232936,104.57013 -0.01218793,152.89984 0.01796305,201.22922 c 0.15512257,23.0325 4.29364275,46.03665 12.24516895,67.65638 7.457554,20.36989 18.284149,39.4919 31.864421,56.40495 15.047518,18.71391 33.486812,34.69274 54.170257,46.89479 22.06637,13.04714 46.666,21.78496 72.01945,25.57685 10.66677,1.61629 21.46349,2.30154 32.24913,2.22448 31.5898,0.0331 63.1797,0.004 94.76955,0.0151 24.48832,-0.0103 48.977,0.009 73.4651,-0.0244 7.69236,-0.19483 15.25006,-3.47394 20.61257,-8.99864 5.26993,-5.33596 8.39291,-12.71288 8.55718,-20.21162 0.073,-5.70703 0.007,-11.41687 0.0295,-17.12499 -0.002,-51.98967 0.0112,-103.97952 -0.0197,-155.96908 -0.30069,-28.02211 -6.61752,-55.95134 -18.35125,-81.398 C 369.88284,90.764227 352.68854,67.782823 331.51602,49.329 311.33798,31.695977 287.57153,18.19757 262.09531,9.8895343 241.98236,3.3130569 220.82329,-0.03688658 199.66256,0.00109911 c -2.3367,-0.01092457 -4.67349,0.00231305 -7.01022,8.5402e-4 z" />
      <path
         style="display:inline;fill:#000000;fill-opacity:1"
         d="m 0,15 v 15 170 a 200,200 45 0 0 200,200 h 170 15 a 15,15 135 0 0 15,-15 V 370 200 A 200,200 45 0 0 200,0 H 30 15 A 15,15 135 0 0 0,15 Z"
         id="path50"
         sodipodi:nodetypes="ccccccccccccccccc"
         inkscape:label="Outline"
         inkscape:original-d="m 0,0 v 15 15 170 200 h 200 170 15 15 V 385 370 200 0 H 200 30 15 Z"
         inkscape:path-effect="#path-effect50" />
      <path
         style="display:inline;fill:#b3b3b3;fill-opacity:1"
         d="M 30,51.2132 V 200 A 170,170 45 0 0 200,370 H 348.7868 370 V 348.7868 200 A 170,170 45 0 0 200,30 H 51.2132 30 Z"
         id="path52"
         inkscape:label="Insert"
         inkscape:original-d="M 30,51.2132 V 200 370 H 200 348.7868 370 V 348.7868 200 30 H 200 51.2132 30 Z"
         inkscape:path-effect="#path-effect54" />
      <path
         style="display:inline;fill:#333333;fill-opacity:1"
         d="M 30,51.2132 348.7868,370 H 370 V 348.7868 L 51.2132,30 H 30 Z"
         id="path32"
         inkscape:label="Stripe" />
      <path
         sodipodi:type="star"
         style="display:inline;fill:#666666;fill-opacity:1"
         id="path60"
         inkscape:flatsided="true"
         sodipodi:sides="6"
         sodipodi:cx="200"
         sodipodi:cy="200"
         sodipodi:r1="114.31083"
         sodipodi:r2="99.04734"
         sodipodi:arg1="-0.26179939"
         sodipodi:arg2="0.26179939"
         inkscape:rounded="0"
         inkscape:randomized="0"
         d="M 310.41578,170.41418 280.82996,280.82996 170.41418,310.41578 89.584218,229.58582 119.17004,119.17004 229.58582,89.584218 Z"
         inkscape:label="Rectangle" />
      <path
         id="path63"
         style="display:inline;fill:#999999;fill-opacity:1"
         inkscape:label="Inner Hex"
         d="m 143.66211,143.66211 c -6.8737,25.65169 -13.7474,51.30338 -20.62109,76.95508 18.77994,18.7806 37.55989,37.5612 56.33984,56.34179 25.65234,-6.87369 51.30469,-13.74739 76.95703,-20.62109 6.8737,-25.65169 13.7474,-51.30338 20.62109,-76.95508 -18.77994,-18.7806 -37.55989,-37.5612 -56.33984,-56.34179 -25.65234,6.87369 -51.30469,13.74739 -76.95703,20.62109 z" />
      <path
         id="path34"
         style="display:inline;fill:#000000;fill-opacity:1"
         inkscape:label="Straight Bars"
         d="m 217.63086,134.19336 c -21.93486,5.87758 -43.86983,11.75523 -65.80469,17.63281 l 2.58785,9.65797 65.80481,-17.63235 z m 48.17578,48.17773 -9.65862,-2.58802 c -4.88151,18.21675 -12.74987,47.58436 -17.63136,65.80114 l 9.65717,2.58962 c 5.87758,-21.93421 11.75523,-43.86853 17.63281,-65.80274 z m -124.54349,28.18803 -7.06979,7.06979 48.17578,48.17773 7.07077,-7.07077 C 176.10271,245.398 154.60037,223.89699 141.26315,210.55912 Z"
         sodipodi:nodetypes="ccccccccccccccc" />
      <path
         id="path29"
         style="display:inline;fill:#4d4d4d;fill-opacity:1"
         inkscape:label="Angle Bars"
         d="m 217.63086,134.19336 c -21.93486,5.87758 -43.86983,11.75523 -65.80469,17.63281 l 8.16406,8.16406 54.65235,-14.64453 z m 48.17578,48.17773 -11.15234,2.98829 c -4.88151,18.21675 -9.76304,36.43361 -14.64453,54.65039 l 8.16406,8.16406 c 5.87758,-21.93421 11.75523,-43.86853 17.63281,-65.80274 z m -120.46094,32.26953 -11.15234,2.98829 48.17578,48.17773 2.98828,-11.15234 c -13.3372,-13.33787 -26.6745,-26.6758 -40.01172,-40.01368 z" />
      <circle
         style="display:inline;opacity:0.5;fill:#4d4d4d"
         id="path45"
         cx="174.89641"
         cy="293.68533"
         r="15" />
    </g>
    <path
       id="path46"
       style="display:none;fill:#2b892b;fill-opacity:1"
       inkscape:label="Outline_Round_2"
       d="M 15,0 C 6.7157288,0 0,6.7157288 0,15 v 15 170 c 0,110.45695 89.54305,200 200,200 h 170 15 c 8.28427,0 15,-6.71573 15,-15 V 370 200 C 400,89.54305 310.45695,0 200,0 H 30 Z M 51.212891,30 H 200 c 93.88841,0 170,76.11159 170,170 v 148.78711 l -79.02805,-79.02805 a 13.862681,13.862681 75.000158 0 1 -3.5879,-13.39039 L 308.34447,178.145 c 1.14409,-4.26968 -0.46227,-10.26476 -3.5879,-13.39039 -23.17039,-23.17039 -46.34079,-46.34079 -69.51118,-69.511175 -3.12563,-3.125628 -9.12071,-4.731989 -13.39039,-3.587906 l -78.22367,20.960421 a 13.862681,13.862681 14.999844 0 1 -13.39039,-3.5879 z M 30,51.212891 109.02805,130.24094 a 13.862681,13.862681 75.000156 0 1 3.5879,13.39039 L 91.655529,221.855 c -1.144083,4.26968 0.462278,10.26476 3.587906,13.39039 23.170385,23.17039 46.340785,46.34079 69.511175,69.51118 3.12563,3.12563 9.12071,4.73199 13.39039,3.5879 l 78.22367,-20.96042 a 13.862681,13.862681 14.999842 0 1 13.39039,3.5879 L 348.78711,370 H 200 C 106.11159,370 30,293.88841 30,200 Z m 196.2785,77.487679 c 15.00703,15.00755 30.0141,30.01513 45.02113,45.02269 3.12557,3.12568 4.73186,9.12081 3.58775,13.39048 -5.49262,20.49773 -10.98526,40.9955 -16.47789,61.49322 -1.14411,4.26968 -5.53286,8.6584 -9.80254,9.80248 -20.49837,5.49266 -40.99678,10.98534 -61.49515,16.47799 -4.26968,1.14409 -10.26472,-0.46232 -13.3903,-3.588 -15.00703,-15.00755 -30.0141,-30.01513 -45.02113,-45.02269 -3.12557,-3.12568 -4.73186,-9.12081 -3.58775,-13.39048 5.49262,-20.49773 10.98526,-40.9955 16.47789,-61.49322 1.14411,-4.26968 5.53286,-8.6584 9.80254,-9.80248 20.49837,-5.49266 40.99678,-10.98534 61.49515,-16.47799 4.26968,-1.14409 10.26472,0.46232 13.3903,3.588 z"
       sodipodi:nodetypes="sscsscsscsscscssccccccccccccsscccccccc"
       inkscape:path-effect="#path-effect46"
       inkscape:original-d="M 15,0 C 6.7157288,0 0,6.7157288 0,15 v 15 170 c 0,110.45695 89.54305,200 200,200 h 170 15 c 8.28427,0 15,-6.71573 15,-15 V 370 200 C 400,89.54305 310.45695,0 200,0 H 30 Z M 51.212891,30 H 200 c 93.88841,0 170,76.11159 170,170 v 148.78711 l -84.6875,-84.6875 c 8.36784,-31.22852 16.73568,-62.45703 25.10352,-93.68555 C 283.47266,143.4707 256.5293,116.52734 229.58594,89.583984 198.35742,97.951823 167.12891,106.31966 135.90039,114.6875 Z M 30,51.212891 114.6875,135.90039 c -8.36784,31.22852 -16.735677,62.45703 -25.103516,93.68555 26.943356,26.94336 53.886716,53.88672 80.830076,80.83008 31.22852,-8.36784 62.45703,-16.73568 93.68555,-25.10352 L 348.78711,370 H 200 C 106.11159,370 30,293.88841 30,200 Z m 190.61914,71.828129 c 18.77993,18.78057 37.55992,37.56121 56.33984,56.34179 -6.87368,25.65168 -13.7474,51.30342 -20.62109,76.95508 -25.65231,6.87369 -51.30472,13.74741 -76.95703,20.62109 -18.77993,-18.78057 -37.55992,-37.56121 -56.33984,-56.34179 6.87368,-25.65168 13.7474,-51.30342 20.62109,-76.95508 25.65231,-6.87369 51.30472,-13.74741 76.95703,-20.62109 z" />
    <path
       id="path51"
       style="display:none;fill:#2b892b;fill-opacity:1"
       inkscape:label="Outline_Round"
       d="M 15,0 C 6.7157288,0 0,6.7157288 0,15 v 15 170 c 0,110.45695 89.54305,200 200,200 h 170 15 c 8.28427,0 15,-6.71573 15,-15 V 370 200 C 400,89.54305 310.45695,0 200,0 H 30 Z M 51.212891,30 H 200 c 93.88841,0 170,76.11159 170,170 v 148.78711 l -79.80473,-79.80473 a 11.960219,11.960219 75.000158 0 1 -3.09552,-11.55275 l 21.52902,-80.34559 a 11.960218,11.960218 75.000157 0 0 -3.09552,-11.55275 L 234.46871,94.466754 a 11.960219,11.960219 14.999843 0 0 -11.55275,-3.095516 l -80.34559,21.529012 a 11.960219,11.960219 14.999844 0 1 -11.55275,-3.09552 z M 30,51.212891 109.80473,131.01762 a 11.960219,11.960219 75.000156 0 1 3.09552,11.55275 l -21.529012,80.34559 a 11.960219,11.960219 75.000157 0 0 3.095516,11.55275 l 71.064536,71.06454 a 11.960218,11.960218 14.999843 0 0 11.55275,3.09552 l 80.34559,-21.52902 a 11.960219,11.960219 14.999842 0 1 11.55275,3.09552 L 348.78711,370 H 200 C 106.11159,370 30,293.88841 30,200 Z m 195.50183,76.710979 c 15.52481,15.52535 31.04966,31.05073 46.57447,46.57608 2.69663,2.69673 4.08248,7.86911 3.09538,11.55283 -5.68215,21.20504 -11.36433,42.41012 -17.04649,63.61515 -0.9871,3.68371 -4.77355,7.47014 -8.45728,8.45722 -21.20567,5.68219 -42.4114,11.36439 -63.61707,17.04657 -3.68373,0.98708 -8.85603,-0.39887 -11.55267,-3.09559 -15.52481,-15.52535 -31.04966,-31.05073 -46.57447,-46.57608 -2.69663,-2.69673 -4.08248,-7.86911 -3.09538,-11.55283 5.68215,-21.20504 11.36433,-42.41012 17.04649,-63.61515 0.9871,-3.68371 4.77355,-7.47014 8.45728,-8.45722 21.20567,-5.68219 42.4114,-11.36439 63.61707,-17.04657 3.68373,-0.98708 8.85603,0.39887 11.55267,3.09559 z"
       inkscape:path-effect="#path-effect33"
       inkscape:original-d="M 15,0 A 15,15 0 0 0 0,15 v 15 170 a 200,200 0 0 0 200,200 h 170 15 a 15,15 0 0 0 15,-15 V 370 200 A 200,200 0 0 0 200,0 H 30 Z M 51.212891,30 H 200 A 170,170 0 0 1 370,200 V 348.78711 L 285.3125,264.09961 310.41602,170.41406 229.58594,89.583984 135.90039,114.6875 Z M 30,51.212891 114.6875,135.90039 89.583984,229.58594 170.41406,310.41602 264.09961,285.3125 348.78711,370 H 200 A 170,170 0 0 1 30,200 Z m 190.61914,71.828129 c 18.77993,18.78057 37.55992,37.56121 56.33984,56.34179 -6.87368,25.65168 -13.7474,51.30342 -20.62109,76.95508 -25.65231,6.87369 -51.30472,13.74741 -76.95703,20.62109 -18.77993,-18.78057 -37.55992,-37.56121 -56.33984,-56.34179 6.87368,-25.65168 13.7474,-51.30342 20.62109,-76.95508 25.65231,-6.87369 51.30472,-13.74741 76.95703,-20.62109 z" />
    <path
       id="path33"
       style="display:inline;fill:#2b892b;fill-opacity:1"
       inkscape:label="Outline"
       d="M 15,0 C 6.7157288,0 0,6.7157288 0,15 v 15 170 c 0,110.45695 89.54305,200 200,200 h 170 15 c 8.28427,0 15,-6.71573 15,-15 V 370 200 C 400,89.54305 310.45695,0 200,0 H 30 Z M 51.212891,30 H 200 c 93.88841,0 170,76.11159 170,170 v 148.78711 l -84.6875,-84.6875 c 8.36784,-31.22852 16.73568,-62.45703 25.10352,-93.68555 C 283.47266,143.4707 256.5293,116.52734 229.58594,89.583984 198.35742,97.951823 167.12891,106.31966 135.90039,114.6875 Z M 30,51.212891 114.6875,135.90039 c -8.36784,31.22852 -16.735677,62.45703 -25.103516,93.68555 26.943356,26.94336 53.886716,53.88672 80.830076,80.83008 31.22852,-8.36784 62.45703,-16.73568 93.68555,-25.10352 L 348.78711,370 H 200 C 106.11159,370 30,293.88841 30,200 Z m 190.61914,71.828129 c 18.77993,18.78057 37.55992,37.56121 56.33984,56.34179 -6.87368,25.65168 -13.7474,51.30342 -20.62109,76.95508 -25.65231,6.87369 -51.30472,13.74741 -76.95703,20.62109 -18.77993,-18.78057 -37.55992,-37.56121 -56.33984,-56.34179 6.87368,-25.65168 13.7474,-51.30342 20.62109,-76.95508 25.65231,-6.87369 51.30472,-13.74741 76.95703,-20.62109 z"
       sodipodi:nodetypes="sscsscsscsscscssccccccccccccsscccccccc" />
    <path
       id="path43"
       style="display:none;fill:#2b892b;fill-opacity:1"
       inkscape:label="Angle Bars"
       d="m 217.63086,134.19336 c -21.93486,5.87758 -43.86983,11.75523 -65.80469,17.63281 l 8.16406,8.16406 54.65235,-14.64453 z m 48.17578,48.17773 -11.15234,2.98829 c -4.88151,18.21675 -9.76304,36.43361 -14.64453,54.65039 l 8.16406,8.16406 c 5.87758,-21.93421 11.75523,-43.86853 17.63281,-65.80274 z m -120.46094,32.26953 -11.15234,2.98829 48.17578,48.17773 2.98828,-11.15234 c -13.3372,-13.33787 -26.6745,-26.6758 -40.01172,-40.01368 z" />
    <path
       id="path42"
       style="display:inline;fill:#2b892b;fill-opacity:1"
       inkscape:label="Straight Bars"
       d="m 217.63086,134.19336 c -21.93486,5.87758 -43.86983,11.75523 -65.80469,17.63281 l 2.58785,9.65797 65.80481,-17.63235 z m 48.17578,48.17773 -9.65862,-2.58802 c -4.88151,18.21675 -12.74987,47.58436 -17.63136,65.80114 l 9.65717,2.58962 c 5.87758,-21.93421 11.75523,-43.86853 17.63281,-65.80274 z m -124.54349,28.18803 -7.06979,7.06979 48.17578,48.17773 7.07077,-7.07077 C 176.10271,245.398 154.60037,223.89699 141.26315,210.55912 Z"
       sodipodi:nodetypes="ccccccccccccccc" />
  </g>
  <g
     inkscape:groupmode="layer"
     id="layer3"
     inkscape:label="TEST"
     inkscape:highlight-color="#a93636"
     style="display:none">
    <circle
       style="display:inline;opacity:0.5;fill:#0000ff"
       id="path31"
       cx="200"
       cy="200"
       r="200" />
  </g>
</svg>
